<svg width="14" height="14" viewBox="0 0 14 14" fill="none" xmlns="http://www.w3.org/2000/svg">
<g clip-path="url(#clip0_81_197)">
<path d="M13.8833 6.69546C13.8075 6.49188 11.9583 1.71496 6.99999 1.71496C2.04166 1.71496 0.190166 6.49188 0.116667 6.69546L0 6.99996L0.116667 7.30446C0.1925 7.50804 2.04166 12.285 6.99999 12.285C11.9583 12.285 13.8098 7.50804 13.8833 7.30446L14 6.99996L13.8833 6.69546ZM6.99999 10.5495C3.8395 10.5495 2.30941 7.91637 1.8725 6.99996C2.31058 6.08121 3.84125 3.45038 6.99999 3.45038C10.1587 3.45038 11.6888 6.08063 12.1275 6.99996C11.6888 7.91929 10.1587 10.5495 6.99999 10.5495Z" fill="#D9D9D9"/>
<path d="M6.99999 9.33336C8.28865 9.33336 9.33332 8.28869 9.33332 7.00003C9.33332 5.71137 8.28865 4.6667 6.99999 4.6667C5.71132 4.6667 4.66666 5.71137 4.66666 7.00003C4.66666 8.28869 5.71132 9.33336 6.99999 9.33336Z" fill="#CACACA"/>
</g>
<defs>
<clipPath id="clip0_81_197">
<rect width="13.5875" height="13.5875" fill="white" transform="scale(1.03036)"/>
</clipPath>
</defs>
</svg>
